<?xml version="1.0" encoding="UTF-8" standalone="no"?>
<!-- Created with Inkscape (http://www.inkscape.org/) -->

<svg
   width="93.518158mm"
   height="86.957626mm"
   viewBox="0 0 93.518158 86.957626"
   version="1.1"
   id="svg1"
   inkscape:version="1.3 (0e150ed6c4, 2023-07-21)"
   sodipodi:docname="logo_shield_freezingpoint_.svg"
   xmlns:inkscape="http://www.inkscape.org/namespaces/inkscape"
   xmlns:sodipodi="http://sodipodi.sourceforge.net/DTD/sodipodi-0.dtd"
   xmlns="http://www.w3.org/2000/svg"
   xmlns:svg="http://www.w3.org/2000/svg">
  <sodipodi:namedview
     id="namedview1"
     pagecolor="#ffffff"
     bordercolor="#666666"
     borderopacity="1.0"
     inkscape:showpageshadow="2"
     inkscape:pageopacity="0.0"
     inkscape:pagecheckerboard="0"
     inkscape:deskcolor="#d1d1d1"
     inkscape:document-units="mm"
     inkscape:zoom="0.74394518"
     inkscape:cx="303.78582"
     inkscape:cy="356.88113"
     inkscape:window-width="2560"
     inkscape:window-height="1377"
     inkscape:window-x="-8"
     inkscape:window-y="-8"
     inkscape:window-maximized="1"
     inkscape:current-layer="svg1" />
  <defs
     id="defs1" />
  <rect
     style="display:none;fill:#505050;fill-opacity:1;fill-rule:evenodd;stroke:#b6b6b6;stroke-width:0.273;stroke-linecap:square;stroke-linejoin:round;stroke-opacity:1"
     id="rect1"
     width="171.00761"
     height="177.79762"
     x="-36.264957"
     y="-32.516891"
     ry="4.4009304" />
  <g
     inkscape:groupmode="layer"
     id="layer3"
     inkscape:label="Layer 2"
     transform="translate(-59.904245,-79.543989)">
    <path
       style="fill:#e8e8e8;fill-opacity:1;stroke:#f5f5f5;stroke-width:0.264583px;stroke-linecap:butt;stroke-linejoin:miter;stroke-opacity:1"
       d="m 63.216604,154.52947 c -0.08891,0.35565 2.845192,4.26779 4.534524,4.53453 1.689331,0.26673 23.295007,3.82322 24.450866,3.82322 1.155858,0 21.161116,2.1339 23.383916,2.1339 2.22281,0 12.53663,-2.22281 14.13705,-3.37867 1.60042,-1.15586 19.47178,-10.84729 19.6496,-11.55859 0.17783,-0.7113 0.26674,-3.73431 -4.17887,-4.62344 -4.44561,-0.88912 -46.456648,-5.15691 -46.456648,-5.15691 -2.889645,-0.17782 -35.431527,13.87032 -35.520438,14.22596 z"
       id="path12"
       sodipodi:nodetypes="ssssssscs" />
  </g>
  <g
     inkscape:label="Calque 1"
     inkscape:groupmode="layer"
     id="layer1"
     transform="translate(-59.904245,-79.543989)">
    <path
       style="fill:#c1c1c1;fill-opacity:1;stroke:#b6b6b6;stroke-width:0.264583px;stroke-linecap:butt;stroke-linejoin:miter;stroke-opacity:1"
       d="m 90.20386,105.34946 c 0,0 -6.179175,-3.65696 -4.69186,-9.237945 0.602294,-2.26004 -1.578844,-6.310152 2.511117,-7.199274 4.089963,-0.889124 8.179927,-2.31172 11.558592,-1.95607 3.378671,0.355648 7.112981,4.979086 7.468631,6.401681 0.35565,1.422596 0.17782,6.935158 -2.31172,7.824278 -2.48954,0.88912 -14.53476,4.16733 -14.53476,4.16733 z"
       id="path5"
       sodipodi:nodetypes="csssssc" />
    <path
       style="fill:#c1c1c1;fill-opacity:1;stroke:#b6b6b6;stroke-width:0.264583px;stroke-linecap:butt;stroke-linejoin:miter;stroke-opacity:1"
       d="m 103.31602,132.30141 c 0.35565,2.1339 -6.486438,16.98333 -4.708198,18.9394 13.094928,-6.34283 11.917948,3.89579 15.474438,3.89579 13.23854,-5.65834 10.92988,4.73501 15.55332,-1.1332 4.62343,-5.86821 18.50485,-4.54762 18.93677,-22.5911 0.31593,-13.19843 -5.69038,-16.89333 -7.91319,-19.47179 -2.48211,-2.87926 -1.04043,-11.976282 -7.11297,-13.514659 -6.66842,-1.689333 -15.9153,-2.044983 -20.36091,-1.511509 -4.44561,0.533474 -6.49059,3.200838 -6.49059,3.200838 l -1.60042,3.55649 z"
       id="path7"
       sodipodi:nodetypes="cccsssssccc" />
    <path
       style="fill:#c1c1c1;fill-opacity:1;stroke:#b6b6b6;stroke-width:0.264583px;stroke-linecap:butt;stroke-linejoin:miter;stroke-opacity:1"
       d="m 138.88462,147.94626 c -4.10784,5.41363 -5.7246,7.73798 -7.80424,8.30197 -8.98372,2.43634 -16.10683,5.62043 -26.065,2.41958 -9.958176,-3.20083 -12.828641,-5.03116 -20.830742,-5.20899 -8.002103,-0.17783 -16.43351,1.60413 -13.588318,0.53718 2.845191,-1.06695 12.330909,-2.49847 14.464803,-1.78718 2.133893,0.7113 9.541501,1.78718 15.054057,3.20977 5.51256,1.4226 10.8473,2.66737 15.82638,2.1339 4.97909,-0.53347 8.7134,-1.60042 10.8473,-3.55649 2.13389,-1.95607 7.00511,-5.35631 7.00511,-5.35631 z"
       id="path8"
       sodipodi:nodetypes="csssssssscc" />
    <path
       style="fill:#c1c1c1;fill-opacity:1;stroke:#737373;stroke-width:0.264583px;stroke-linecap:butt;stroke-linejoin:miter;stroke-opacity:1"
       d="m 106.69469,106.16121 c 0,-1.60042 1.60042,-6.401677 3.20084,-7.824273 1.60042,-1.422595 6.40168,-4.623437 9.4247,-4.623437 3.02301,0 9.60252,2.133896 10.49164,5.690386 0.88912,3.556494 4.80126,8.713394 -0.35565,11.914244 -5.15691,3.20084 -9.78035,5.51255 -13.69248,3.91213 -3.91214,-1.60042 -9.06905,-9.06905 -9.06905,-9.06905 z"
       id="path6" />
    <path
       style="fill:#c1c1c1;fill-opacity:1;stroke:#b6b6b6;stroke-width:0.264583px;stroke-linecap:butt;stroke-linejoin:miter;stroke-opacity:1"
       d="m 93.291598,100.01101 c -5.512558,8.53558 -7.345601,9.32641 -8.851779,19.13139 -0.779719,5.07585 -1.569909,11.02512 0.741809,15.47073 2.311717,4.44561 10.009554,6.93508 11.732714,2.48955 3.773578,-9.73533 5.868208,-6.57951 11.558588,-10.136 5.69039,-3.55649 10.8473,-10.31382 7.82428,-17.07115 -3.02302,-6.75733 -23.005612,-9.88452 -23.005612,-9.88452 z"
       id="path4"
       sodipodi:nodetypes="csssssc" />
  </g>
  <g
     inkscape:groupmode="layer"
     id="layer2"
     inkscape:label="Layer 1"
     transform="translate(-59.904245,-79.543989)">
    <path
       style="fill:#e8e8e8;fill-opacity:0.464623;stroke:#e4e4e4;stroke-width:0.264583px;stroke-linecap:butt;stroke-linejoin:miter;stroke-opacity:1"
       d="m 110.94139,165.97798 c 10.05927,1.00593 15.38412,0.43558 17.18858,-6.1613 3.28572,-12.01217 0.37722,-21.47119 0.88019,-33.8012 0.67681,-16.59161 1.41595,-21.6066 -1.1406,-26.570771 -0.95754,-1.859303 -8.41571,-7.539219 -25.51647,-6.533292 -17.100758,1.005928 -14.867936,-2.23806 -25.17869,-1.483613 -10.310752,0.754443 -8.974452,1.311024 -14.004089,7.598069 -5.029633,6.287047 -2.604136,20.670877 -2.159169,28.651057 1.608972,28.8558 0.437991,20.30321 0.932272,28.09971 0.32514,5.12856 14.147066,6.13711 14.147066,6.13711 16.457887,2.00923 12.529548,1.8321 34.85091,4.06423 z"
       id="path3"
       sodipodi:nodetypes="ssssssssscs" />
    <path
       style="fill:#c6c6c6;fill-opacity:0.464623;stroke:#e3e3e3;stroke-width:0.264583px;stroke-linecap:butt;stroke-linejoin:miter;stroke-opacity:1"
       d="m 90.096736,82.38186 c 3.256626,-1.50889 11.657314,-3.135728 21.722024,-2.601113 8.70045,0.462149 31.32293,3.745807 36.56813,6.231262 3.94055,1.867243 5.83616,7.623347 4.45301,17.053911 -0.25545,1.74174 -1.11639,18.36781 -1.0275,21.96738 0.39355,15.93496 -1.89566,21.79063 -1.76931,25.58118 -9.24195,4.9039 -24.7284,16.33014 -30.34391,15.45574 -5.6155,-0.8744 -48.072784,-7.95101 -56.559124,-11.63536 28.607215,-14.37234 7.316201,-18.81389 57.990494,-55.158237 -8.80115,-8.17839 -49.247483,-9.09128 -54.17276,-5.341088 1.581816,-1.625234 4.984786,-3.164607 7.502257,-4.39917 2.517472,-1.234564 4.903889,-2.352928 7.030286,-3.324753 2.126397,-0.971824 3.992773,-1.797109 5.470162,-2.445515 1.47739,-0.648405 2.565792,-1.119931 3.136241,-1.384237 z"
       id="path2"
       sodipodi:nodetypes="ssssscscccssss" />
    <path
       style="fill:#eeeeee;fill-opacity:0.931604;stroke:none;stroke-width:0.264583px;stroke-linecap:butt;stroke-linejoin:miter;stroke-opacity:1"
       d="m 64.905934,149.37256 c 6.223857,-3.55649 13.692486,-8.53557 20.983289,-14.75943 7.290805,-6.22385 34.233297,-15.79881 41.166367,-20.89437 -0.42626,-7.13129 1.4226,-11.20295 -0.44456,-14.581611 -1.55059,-2.805828 -27.918442,-5.067999 -31.119284,-5.067999 -3.200842,0 -7.290803,0.177824 -12.981186,0.177824 -5.690386,0 -9.069049,-1.244772 -12.26989,0.533474 -3.200842,1.778246 -7.112979,7.468632 -8.002101,9.069052 -0.889124,1.60042 2.667365,45.52306 2.667365,45.52306 z"
       id="path9"
       sodipodi:nodetypes="cscsssssc" />
    <path
       style="fill:#eeeeee;fill-opacity:1;stroke:none;stroke-width:0.264583px;stroke-linecap:butt;stroke-linejoin:miter;stroke-opacity:1"
       d="m 72.221379,91.331826 c 9.00988,-4.869683 15.279051,-6.353297 17.946419,-8.131543 2.667367,-1.778244 7.457842,-2.290145 8.880437,-2.290145 1.422595,0 11.202945,-1.60042 30.230165,2.667368 1.3881,0.31135 16.19171,2.016956 16.89333,4.089962 -4.92569,4.542847 -16.69974,6.407438 -20.80546,6.846242 -9.4247,-4.445612 -20.81996,-1.164794 -26.688167,-2.409566 -5.868212,-1.24477 -10.500534,-1.791769 -16.110545,-1.699351 -4.010337,0.06606 -10.346179,0.927033 -10.346179,0.927033 z"
       id="path10"
       sodipodi:nodetypes="csssccssc" />
    <path
       style="fill:#eeeeee;fill-opacity:0.877358;stroke:none;stroke-width:0.264583px;stroke-linecap:butt;stroke-linejoin:miter;stroke-opacity:1"
       d="m 129.54513,96.647604 c 3.91214,-2.133893 4.80127,-2.044981 10.04709,-3.734314 5.24582,-1.689333 9.15796,-4.979084 9.15796,-4.979084 0,0 3.69594,2.574171 3.20084,7.55754 -0.54676,5.503364 -0.44456,10.047084 -1.06695,30.674724 -0.7113,-29.163216 -7.55753,-21.33894 -9.60252,-18.31592 -2.04498,3.02301 -10.9362,17.96027 -10.9362,16.98224 0,-0.97804 0.35564,-14.40379 0.35564,-15.38182 0,-0.97804 -1.15586,-12.803366 -1.15586,-12.803366 z"
       id="path11"
       sodipodi:nodetypes="cscscsssc" />
  </g>
</svg>
